<svg xmlns="http://www.w3.org/2000/svg" viewBox="0 0 960 320" font-family="-apple-system, BlinkMacSystemFont, 'Segoe UI', sans-serif">
  <defs>
    <filter id="shadow" x="-2%" y="-2%" width="104%" height="108%">
      <feDropShadow dx="0" dy="1" stdDeviation="2" flood-opacity="0.08"/>
    </filter>
  </defs>

  <!-- Background -->
  <rect width="960" height="320" rx="12" fill="#f8f9fa"/>

  <!-- Column headers -->
  <text x="28" y="32" font-size="11" font-weight="600" fill="#6b7280">Backlog</text>
  <text x="188" y="32" font-size="11" font-weight="600" fill="#6b7280">To do</text>
  <text x="348" y="32" font-size="11" font-weight="600" fill="#6b7280">Doing</text>
  <text x="508" y="32" font-size="11" font-weight="600" fill="#6b7280">In Review</text>
  <text x="668" y="32" font-size="11" font-weight="600" fill="#6b7280">Waiting</text>
  <text x="828" y="32" font-size="11" font-weight="600" fill="#6b7280">Done</text>

  <!-- Status dots -->
  <circle cx="20" cy="28" r="4" fill="none" stroke="#9ca3af" stroke-width="1.5"/>
  <circle cx="180" cy="28" r="4" fill="none" stroke="#9ca3af" stroke-width="1.5"/>
  <circle cx="340" cy="28" r="4" fill="#f59e0b" stroke="#f59e0b" stroke-width="1.5"/>
  <circle cx="500" cy="28" r="4" fill="#3b82f6" stroke="#3b82f6" stroke-width="1.5"/>
  <circle cx="660" cy="28" r="4" fill="#8b5cf6" stroke="#8b5cf6" stroke-width="1.5"/>
  <circle cx="820" cy="28" r="4" fill="#22c55e" stroke="#22c55e" stroke-width="1.5"/>

  <!-- Column dividers -->
  <line x1="160" y1="12" x2="160" y2="308" stroke="#e5e7eb" stroke-width="1"/>
  <line x1="320" y1="12" x2="320" y2="308" stroke="#e5e7eb" stroke-width="1"/>
  <line x1="480" y1="12" x2="480" y2="308" stroke="#e5e7eb" stroke-width="1"/>
  <line x1="640" y1="12" x2="640" y2="308" stroke="#e5e7eb" stroke-width="1"/>
  <line x1="800" y1="12" x2="800" y2="308" stroke="#e5e7eb" stroke-width="1"/>

  <!-- Backlog cards -->
  <rect x="12" y="48" width="136" height="72" rx="6" fill="white" filter="url(#shadow)"/>
  <text x="20" y="64" font-size="9" fill="#9ca3af">PG-201</text>
  <text x="20" y="80" font-size="11" font-weight="500" fill="#1f2937">Add CSV export to</text>
  <text x="20" y="94" font-size="11" font-weight="500" fill="#1f2937">analytics dashboard</text>
  <rect x="20" y="104" width="8" height="8" rx="2" fill="#e5e7eb"/>

  <rect x="12" y="128" width="136" height="72" rx="6" fill="white" filter="url(#shadow)"/>
  <text x="20" y="144" font-size="9" fill="#9ca3af">PG-215</text>
  <text x="20" y="160" font-size="11" font-weight="500" fill="#1f2937">Explore GraphQL</text>
  <text x="20" y="174" font-size="11" font-weight="500" fill="#1f2937">subscriptions</text>
  <rect x="20" y="184" width="8" height="8" rx="2" fill="#e5e7eb"/>

  <!-- To do cards -->
  <rect x="172" y="48" width="136" height="72" rx="6" fill="white" filter="url(#shadow)"/>
  <text x="180" y="64" font-size="9" fill="#9ca3af">PG-198</text>
  <text x="180" y="80" font-size="11" font-weight="500" fill="#1f2937">Replace date picker</text>
  <text x="180" y="94" font-size="11" font-weight="500" fill="#1f2937">with native input</text>
  <rect x="180" y="104" width="36" height="8" rx="2" fill="#dbeafe"/>
  <text x="184" y="111" font-size="6" fill="#3b82f6">frontend</text>

  <rect x="172" y="128" width="136" height="72" rx="6" fill="white" filter="url(#shadow)"/>
  <text x="180" y="144" font-size="9" fill="#9ca3af">PG-210</text>
  <text x="180" y="160" font-size="11" font-weight="500" fill="#1f2937">Add rate limiting</text>
  <text x="180" y="174" font-size="11" font-weight="500" fill="#1f2937">to webhook endpoint</text>
  <rect x="180" y="184" width="24" height="8" rx="2" fill="#fef3c7"/>
  <text x="184" y="191" font-size="6" fill="#d97706">API</text>

  <!-- Doing cards -->
  <rect x="332" y="48" width="136" height="72" rx="6" fill="white" filter="url(#shadow)" stroke="#f59e0b" stroke-width="1.5"/>
  <text x="340" y="64" font-size="9" fill="#9ca3af">PG-189</text>
  <text x="340" y="80" font-size="11" font-weight="500" fill="#1f2937">Add retry logic to</text>
  <text x="340" y="94" font-size="11" font-weight="500" fill="#1f2937">webhook delivery</text>
  <rect x="340" y="104" width="24" height="8" rx="2" fill="#fef3c7"/>
  <text x="344" y="111" font-size="6" fill="#d97706">API</text>
  <circle cx="454" cy="108" r="8" fill="#e0e7ff"/>
  <text x="451" y="112" font-size="8" font-weight="500" fill="#4f46e5">M</text>

  <!-- In Review cards -->
  <rect x="492" y="48" width="136" height="72" rx="6" fill="white" filter="url(#shadow)" stroke="#3b82f6" stroke-width="1.5"/>
  <text x="500" y="64" font-size="9" fill="#9ca3af">PG-185</text>
  <text x="500" y="80" font-size="11" font-weight="500" fill="#1f2937">Fix timezone in</text>
  <text x="500" y="94" font-size="11" font-weight="500" fill="#1f2937">scheduled reports</text>
  <rect x="500" y="104" width="20" height="8" rx="2" fill="#fce7f3"/>
  <text x="504" y="111" font-size="6" fill="#db2777">bug</text>
  <circle cx="614" cy="108" r="8" fill="#e0e7ff"/>
  <text x="611" y="112" font-size="8" font-weight="500" fill="#4f46e5">M</text>

  <rect x="492" y="128" width="136" height="72" rx="6" fill="white" filter="url(#shadow)"/>
  <text x="500" y="144" font-size="9" fill="#9ca3af">PG-192</text>
  <text x="500" y="160" font-size="11" font-weight="500" fill="#1f2937">Add dark mode to</text>
  <text x="500" y="174" font-size="11" font-weight="500" fill="#1f2937">settings page</text>
  <rect x="500" y="184" width="36" height="8" rx="2" fill="#dbeafe"/>
  <text x="504" y="191" font-size="6" fill="#3b82f6">frontend</text>

  <!-- Waiting card -->
  <rect x="652" y="48" width="136" height="72" rx="6" fill="white" filter="url(#shadow)" stroke="#8b5cf6" stroke-width="1.5"/>
  <text x="660" y="64" font-size="9" fill="#9ca3af">PG-177</text>
  <text x="660" y="80" font-size="11" font-weight="500" fill="#1f2937">Migrate auth tokens</text>
  <text x="660" y="94" font-size="11" font-weight="500" fill="#1f2937">to new vault</text>
  <rect x="660" y="104" width="48" height="8" rx="2" fill="#fef3c7"/>
  <text x="664" y="111" font-size="6" fill="#d97706">blocked: DevOps</text>

  <!-- Done cards -->
  <rect x="812" y="48" width="136" height="72" rx="6" fill="white" filter="url(#shadow)" opacity="0.7"/>
  <text x="820" y="64" font-size="9" fill="#9ca3af">PG-170</text>
  <text x="820" y="80" font-size="11" font-weight="500" fill="#6b7280">Add user profile</text>
  <text x="820" y="94" font-size="11" font-weight="500" fill="#6b7280">photo upload</text>
  <circle cx="934" cy="108" r="8" fill="#dcfce7"/>
  <text x="930" y="112" font-size="8" fill="#16a34a">✓</text>

  <rect x="812" y="128" width="136" height="72" rx="6" fill="white" filter="url(#shadow)" opacity="0.7"/>
  <text x="820" y="144" font-size="9" fill="#9ca3af">PG-165</text>
  <text x="820" y="160" font-size="11" font-weight="500" fill="#6b7280">Extract email</text>
  <text x="820" y="174" font-size="11" font-weight="500" fill="#6b7280">validation service</text>
  <circle cx="934" cy="188" r="8" fill="#dcfce7"/>
  <text x="930" y="192" font-size="8" fill="#16a34a">✓</text>

  <rect x="812" y="208" width="136" height="72" rx="6" fill="white" filter="url(#shadow)" opacity="0.7"/>
  <text x="820" y="224" font-size="9" fill="#9ca3af">PG-160</text>
  <text x="820" y="240" font-size="11" font-weight="500" fill="#6b7280">Fix null pointer in</text>
  <text x="820" y="254" font-size="11" font-weight="500" fill="#6b7280">payment validation</text>
  <circle cx="934" cy="268" r="8" fill="#dcfce7"/>
  <text x="930" y="272" font-size="8" fill="#16a34a">✓</text>
</svg>
